<?xml version="1.0" encoding="UTF-8" standalone="no"?>
<svg
   xmlns:dc="http://purl.org/dc/elements/1.1/"
   xmlns:cc="http://creativecommons.org/ns#"
   xmlns:rdf="http://www.w3.org/1999/02/22-rdf-syntax-ns#"
   xmlns:svg="http://www.w3.org/2000/svg"
   xmlns="http://www.w3.org/2000/svg"
   xmlns:sodipodi="http://sodipodi.sourceforge.net/DTD/sodipodi-0.dtd"
   xmlns:inkscape="http://www.inkscape.org/namespaces/inkscape"
   width="100"
   height="100"
   id="svg2"
   version="1.1"
   inkscape:version="1.0.2 (e86c870879, 2021-01-15, custom)"
   sodipodi:docname="la.svg">
  <defs
     id="defs4" />
  <sodipodi:namedview
     id="base"
     pagecolor="#ffffff"
     bordercolor="#666666"
     borderopacity="1.0"
     inkscape:pageopacity="0.0"
     inkscape:pageshadow="2"
     inkscape:zoom="6.13"
     inkscape:cx="38.720265"
     inkscape:cy="44.984239"
     inkscape:document-units="px"
     inkscape:current-layer="layer1"
     showgrid="true"
     inkscape:object-nodes="true"
     inkscape:snap-smooth-nodes="true"
     inkscape:snap-grids="true"
     inkscape:object-paths="true"
     inkscape:snap-object-midpoints="true"
     inkscape:snap-center="true"
     inkscape:snap-global="true"
     inkscape:window-width="1920"
     inkscape:window-height="1061"
     inkscape:window-x="0"
     inkscape:window-y="19"
     inkscape:window-maximized="0"
     inkscape:document-rotation="0">
    <inkscape:grid
       type="xygrid"
       id="grid2985"
       empspacing="10"
       visible="true"
       enabled="true"
       snapvisiblegridlinesonly="true"
       spacingx="3.3333px"
       spacingy="3.3333px" />
    <inkscape:grid
       type="xygrid"
       id="grid2987"
       empspacing="2"
       visible="true"
       enabled="false"
       snapvisiblegridlinesonly="true"
       color="#0000ff"
       opacity="0.08235294"
       empcolor="#0000ff"
       empopacity="0.07843137" />
    <inkscape:grid
       type="xygrid"
       id="grid2989"
       empspacing="5"
       visible="true"
       enabled="false"
       snapvisiblegridlinesonly="true" />
  </sodipodi:namedview>
  <metadata
     id="metadata7">
    <rdf:RDF>
      <cc:Work
         rdf:about="">
        <dc:format>image/svg+xml</dc:format>
        <dc:type
           rdf:resource="http://purl.org/dc/dcmitype/StillImage" />
        <dc:title></dc:title>
      </cc:Work>
    </rdf:RDF>
  </metadata>
  <g
     inkscape:groupmode="layer"
     id="layer2"
     inkscape:label="Calque"
     style="opacity:1">
    <g
       id="g4114"
       transform="matrix(1.5570969,0,0,1.5570969,-168.38745,100.83391)" />
    <rect
       style="fill:#b4c4d8;fill-opacity:1;stroke:none;stroke-width:0.93300002999999998;stroke-linecap:round;stroke-linejoin:bevel;stroke-miterlimit:4;stroke-opacity:0.65722380999999996;stroke-dasharray:none;stroke-dashoffset:0"
       id="rect4435"
       width="99.999001"
       height="99.999001"
       x="0"
       y="0.001" />
  </g>
  <g
     inkscape:label="Calque 1"
     inkscape:groupmode="layer"
     id="layer1"
     transform="translate(0,-952.36214)"
     style="opacity:0.24766413">
    <path
       style="opacity:0.30851063;fill:#7c79b4;fill-opacity:0.46175639;stroke:none"
       d="m 50,965.07751 c -13.361073,0 -24.616971,8.96171 -28.081434,21.20644 0.179227,2.29302 1.096511,4.43709 2.633703,6.0883 C 25.519992,979.14798 36.528194,968.70312 50,968.70312 c 13.413238,0 24.394392,10.35566 25.447731,23.49811 1.687979,-1.6201 2.742538,-3.64472 2.531091,-6.32773 C 74.372907,973.83973 63.211184,965.07751 50,965.07751 z"
       id="path4493"
       inkscape:connector-curvature="0" />
    <path
       style="opacity:0.30851063;fill:#595598;fill-opacity:0.62889518;stroke:none"
       d="m 50,972.36294 c -12.094013,0 -21.890521,9.7965 -21.890521,21.89053 0,0.17163 -0.0039,0.34236 0,0.51305 0.134444,0.0499 0.272047,0.0923 0.410447,0.13682 0.886801,0.50874 2.102091,0.95188 3.38619,1.40236 -0.07467,-0.67045 -0.136815,-1.3618 -0.136815,-2.05223 0,-10.07195 8.158764,-18.2307 18.230699,-18.2307 10.071934,0 18.230699,8.15875 18.230699,18.2307 0,0.72592 -0.05439,1.45114 -0.136815,2.15484 1.288142,-0.51452 2.576554,-1.05861 3.796637,-1.71019 0.003,-0.14804 0,-0.29591 0,-0.44465 0,-12.09403 -9.796508,-21.89053 -21.890521,-21.89053 z"
       id="path4491"
       inkscape:connector-curvature="0" />
    <path
       style="opacity:0.30851063;fill:#47438e;fill-opacity:0.78753542;stroke:none"
       d="m 50,979.64838 c -8.062683,0 -14.570878,6.5424 -14.570878,14.60509 0,1.24239 0.187915,2.43958 0.478855,3.59141 2.630471,1.2605 4.592162,3.05702 3.659822,6.29352 0.974013,0.351 1.763566,1.3124 2.428479,2.2917 2.299812,1.523 5.035266,2.4285 8.003722,2.4285 2.926029,0 5.649778,-0.8768 7.935314,-2.3601 0.557509,-0.8152 1.181453,-1.5954 2.223256,-2.0522 -0.331543,-1.9522 0.383141,-5.33097 3.146762,-6.15677 0.232702,-0.0957 0.541411,-0.21147 0.786691,-0.30784 0.315153,-1.19294 0.513059,-2.4366 0.513059,-3.72822 0,-8.06269 -6.542399,-14.60509 -14.605082,-14.60509 z m 0,3.65982 c 6.040596,0 10.94526,4.90466 10.94526,10.94527 0,6.04063 -4.904664,10.94533 -10.94526,10.94533 -6.040596,0 -10.911057,-4.9047 -10.911057,-10.94533 0,-6.04061 4.870461,-10.94527 10.911057,-10.94527 z"
       id="path4489"
       inkscape:connector-curvature="0" />
    <path
       style="opacity:0.30851063;fill:#595598;fill-opacity:0.62889518;stroke:none"
       d="m 46.990053,1012.2106 c 0.432396,1.3744 -0.203254,2.3339 -3.078354,1.4023 -1.548466,-0.5074 -1.874264,0.104 -2.154848,0.9235 2.546871,1.0369 5.322755,1.6076 8.243149,1.6076 2.969925,0 5.798193,-0.5713 8.379965,-1.6418 -0.287306,-0.528 -0.626691,-0.9327 -1.231342,-0.9577 -3.015943,0.7179 -4.399932,0.1083 -4.104472,-1.3339 -0.992931,0.1673 -2.003481,0.2736 -3.044151,0.2736 -1.028844,0 -2.027686,-0.11 -3.009947,-0.2736 z"
       id="path4485"
       inkscape:connector-curvature="0" />
    <path
       style="opacity:0.30851063;fill:#7c79b4;fill-opacity:0.4627451;stroke:none"
       d="m 30.366939,1015.8703 c 5.180071,4.7077 12.074305,7.5592 19.633061,7.5592 7.558756,0 14.445004,-2.8515 19.633061,-7.5592 -2.533808,1.2954 -5.314434,2.1468 -8.311557,1.6418 -0.208354,0 -0.407665,-0.027 -0.581467,-0.068 -3.262849,1.5124 -6.907592,2.3601 -10.740037,2.3601 -3.957274,0 -7.70788,-0.9248 -11.047872,-2.5311 -2.782563,0.941 -5.907312,-0.011 -8.585189,-1.4024 z"
       id="path4446"
       inkscape:connector-curvature="0" />
    <path
       style="fill:#413e6f;fill-opacity:0.55524083;stroke:none"
       d="m 20.0008,984.48127 c -2.390338,15.76943 22.330339,13.08278 16.948996,19.79263 -1.032995,2.9866 2.99315,0.7709 3.490166,4.1994 0.463838,1.7322 2.926242,1.4302 3.460244,2.9777 0,0 -5.043976,-0.78 -4.172199,2.7948 -1.200824,1.7159 -3.303922,1.3581 -3.516175,0.8038 -0.538626,0.5864 -2.796798,0.2721 -2.749482,-1.0506 -1.538662,1.0373 -3.081353,-0.033 -2.628829,-1.6221 -1.745765,1.0058 -2.734936,-0.3478 -2.413043,-1.199 -4.063961,-0.2021 -7.566418,-0.97 -8.192127,-5.0179 -3.824234,-2.8893 -2.665219,-5.6694 -2.799475,-5.7932 -0.493024,-0.4547 -1.373331,-4.46279 -0.09557,-4.9902 -0.712328,-1.44403 -1.144417,-5.40646 0.36732,-5.48668 -0.09758,-3.63996 1,-5.17055 2.300187,-5.40865 z"
       id="path4019-7"
       inkscape:connector-curvature="0"
       sodipodi:nodetypes="ccccccccccsccc" />
    <path
       sodipodi:nodetypes="ccccccccccsccc"
       inkscape:connector-curvature="0"
       id="path4121"
       d="m 79.9992,984.48127 c 2.390338,15.76943 -22.330339,13.08278 -16.948996,19.79263 1.032995,2.9866 -2.99315,0.7709 -3.490166,4.1994 -0.463838,1.7322 -2.926242,1.4302 -3.460244,2.9777 0,0 5.043976,-0.78 4.1722,2.7948 1.200823,1.7159 3.303923,1.3581 3.516174,0.8038 0.538626,0.5864 2.796798,0.2721 2.749482,-1.0506 1.538662,1.0373 3.081353,-0.033 2.628829,-1.6221 1.745765,1.0058 2.734936,-0.3478 2.413043,-1.199 4.063961,-0.2021 7.566419,-0.97 8.192127,-5.0179 3.824234,-2.8893 2.665219,-5.6694 2.799475,-5.7932 0.493024,-0.4547 1.373331,-4.46279 0.09557,-4.9902 0.712328,-1.44403 1.144417,-5.40646 -0.36732,-5.48668 0.09758,-3.63996 -1,-5.17055 -2.300187,-5.40865 z"
       style="fill:#413e6f;fill-opacity:0.55524083;stroke:none" />
    <path
       style="font-size:medium;font-style:normal;font-variant:normal;font-weight:normal;font-stretch:normal;text-indent:0;text-align:start;text-decoration:none;line-height:normal;letter-spacing:normal;word-spacing:normal;text-transform:none;direction:ltr;block-progression:tb;writing-mode:lr-tb;text-anchor:start;baseline-shift:baseline;color:#000000;fill:#282644;fill-opacity:1;stroke:none;stroke-width:2;marker:none;visibility:visible;display:inline;overflow:visible;enable-background:accumulate;font-family:Sans;-inkscape-font-specification:Sans"
       d="m 52.392086,1008.5701 -5.560029,1.2291 -0.510178,1.5317 4.307471,1.3047 -3.914312,1.5684 0,1.7541 4.113052,2.2206 -5.875788,1.9399 -0.334631,2.6914 6.599258,2.1216 -8.731593,1.5726 -0.583879,3.4356 18.90683,3.9523 -1.101709,-3.1928 -12.032404,-2.3503 9.474708,-1.8967 -0.0432,-2.2984 -8.49397,-2.8039 5.543114,-2.1257 0.120973,-1.8145 -5.149955,-2.3504 3.547074,-1.551 -0.06048,-1.7541 -3.418937,-1.2488 3.235319,-0.851 z"
       id="path2997"
       inkscape:connector-curvature="0"
       sodipodi:nodetypes="cccccccccccccccccccccccccc" />
    <path
       style="fill:#282644;fill-opacity:1;stroke:none"
       d="m 47.652572,1001.2902 c -4.478947,25.5993 -13.760575,34.9005 -13.760575,34.9005 l 6.441764,0 c 0,-5.0876 5.983682,-14.2194 8.528533,-28.9124 0.475114,-1.7731 1.936324,-1.6271 2.298469,0 2.54485,14.693 8.528532,23.8248 8.528532,28.9124 l 6.441764,0 c 0,0 -9.281628,-9.3012 -13.760575,-34.9005 -0.743486,0.2493 -1.531564,0.3932 -2.358955,0.3932 -0.827393,0 -1.615469,-0.1439 -2.358957,-0.3932 z"
       id="path2993"
       inkscape:connector-curvature="0" />
    <path
       sodipodi:type="arc"
       style="fill:#282644;fill-opacity:1;stroke:none"
       id="path3783"
       sodipodi:cx="49.9995"
       sodipodi:cy="56.667099"
       sodipodi:rx="6.6666002"
       sodipodi:ry="6.6666002"
       d="m 56.666101,56.667099 a 6.6666002,6.6666002 0 1 1 -13.333201,0 6.6666002,6.6666002 0 1 1 13.333201,0 z"
       transform="matrix(0.67266016,0,0,0.67266016,16.378382,956.13642)" />
  </g>
</svg>
